<svg xmlns="http://www.w3.org/2000/svg" xmlns:xlink="http://www.w3.org/1999/xlink" version="1.1" x="0px" y="0px" viewBox="1 -1 100 125" style="enable-background:new 1 -1 100 100;" xml:space="preserve"><title>20</title><title>20</title><title>20</title><title>20</title><g><path d="M43.4,69.5c-5.1,0-9.2,4.2-9.2,9.3c0,5.2,4.1,9.4,9.2,9.4s9.2-4.2,9.2-9.4C52.6,73.6,48.5,69.5,43.4,69.5z M43.4,82.2   c-1.8,0-3.2-1.5-3.2-3.4c0-1.8,1.4-3.3,3.2-3.3s3.2,1.5,3.2,3.3C46.6,80.6,45.2,82.2,43.4,82.2z"/><path d="M80.1,69.5c-5.1,0-9.2,4.2-9.2,9.3c0,5.2,4.1,9.4,9.2,9.4s9.2-4.2,9.2-9.4C89.2,73.6,85.1,69.5,80.1,69.5z M80.1,82.2   c-1.8,0-3.2-1.5-3.2-3.4c0-1.8,1.4-3.3,3.2-3.3s3.2,1.5,3.2,3.3C83.2,80.6,81.8,82.2,80.1,82.2z"/><path d="M92.7,21.5L92.7,21.5c-0.6-0.8-1.5-1.2-2.4-1.2H31l-1.3-4.2c-1.2-3.8-4.6-6.3-8.6-6.3h-9.3c-1.7,0-3,1.3-3,3s1.3,3,3,3h9.3   c1.3,0,2.5,0.8,2.9,2.1l10.9,34.4l-0.1,0.3c-1.3,3.1-1,6.6,0.8,9.5c1.9,2.8,5,4.5,8.4,4.5h41c1.7,0,3-1.3,3-3s-1.3-3-3-3h-41   c-1.4,0-2.6-0.7-3.3-1.8c-0.7-1.1-0.9-2.5-0.4-3.7h35.1c4.8,0,9-3.1,10.5-7.7l7.3-23.2C93.4,23.3,93.2,22.3,92.7,21.5z M75.3,49.1   H40.1l-7.2-22.8h53.3l-6,19.3C79.4,47.7,77.5,49.1,75.3,49.1z"/></g><text x="1" y="114" fill="#000000" font-size="5px" font-weight="bold" font-family="'Helvetica Neue', Helvetica, Arial-Unicode, Arial, Sans-serif">Created by Jugalbandi</text><text x="1" y="119" fill="#000000" font-size="5px" font-weight="bold" font-family="'Helvetica Neue', Helvetica, Arial-Unicode, Arial, Sans-serif">from the Noun Project</text></svg>