<svg xmlns="http://www.w3.org/2000/svg" xmlns:xlink="http://www.w3.org/1999/xlink" xml:space="preserve" version="1.1" style="shape-rendering:geometricPrecision;text-rendering:geometricPrecision;image-rendering:optimizeQuality;" viewBox="0 0 287 397.5" x="0px" y="0px" fill-rule="evenodd" clip-rule="evenodd"><defs><style type="text/css">
   
    .fil0 {fill:black;fill-rule:nonzero}
   
  </style></defs><g><path class="fil0" d="M25 306c0,16 -25,16 -25,0 0,-80 64,-144 144,-144 79,0 143,64 143,144 0,16 -25,16 -25,0 0,-66 -53,-119 -118,-119 -66,0 -119,53 -119,119z"/><path class="fil0" d="M144 0c42,0 77,35 77,77 0,43 -35,77 -77,77 -43,0 -77,-34 -77,-77 0,-42 34,-77 77,-77zm0 25c-29,0 -52,24 -52,52 0,29 23,52 52,52 28,0 51,-23 51,-52 0,-28 -23,-52 -51,-52z"/></g><text x="0" y="333" fill="#000000" font-size="5px" font-weight="bold" font-family="'Helvetica Neue', Helvetica, Arial-Unicode, Arial, Sans-serif">Created by Saifurrijal</text><text x="0" y="338" fill="#000000" font-size="5px" font-weight="bold" font-family="'Helvetica Neue', Helvetica, Arial-Unicode, Arial, Sans-serif">from the Noun Project</text></svg>